# xmcd
#
# Track frame offsets: 
#        150
#        17540
#        33525
#        49485
#        66245
#        81530
#        98400
#        114615
#        132155
#        160167
#        173330
#        187370
#        202950
#
# Disc length: 2954 seconds
#
# Revision: 0
# Processed by: cddbd v1.5.2PL0 Copyright (c) Steve Scherf et al.
# Submitted via: ExactAudioCopy v0.99pb5
#
DISCID=af0b880d
DTITLE=The Solid Senders - Dig My Wheels
DYEAR=1997
DGENRE=Blues
TTITLE0=Black Cat
TTITLE1=I Woke Up This Morning
TTITLE2=I Got My Eyes On You
TTITLE3=This Is Hip
TTITLE4=One Way Livin'
TTITLE5=It's Your Voodoo Working
TTITLE6=She Loves Me Like A Devil
TTITLE7=Break In "E"
TTITLE8=Tell Me What Lies
TTITLE9=King Of Fool
TTITLE10=Off My Line
TTITLE11=Dig My Wheels
TTITLE12=Call Me Rockin'
EXTD=
EXTT0=
EXTT1=
EXTT2=
EXTT3=
EXTT4=
EXTT5=
EXTT6=
EXTT7=
EXTT8=
EXTT9=
EXTT10=
EXTT11=
EXTT12=
PLAYORDER=
